<svg xmlns="http://www.w3.org/2000/svg" width="127" height="31.315" viewBox="0 0 127 31.315"><g transform="translate(-630.42 -374.418)"><path d="M630.42,398.373c5.012,3.011,14.663,1.958,14.743-5.632-.361-4.452-3.068-4.6-6.128-6.8-.947-.681-1.723-1.569-.779-2.849,1.015-1.373,3.848-1.614,6.766-.314l1.474-3.767c-4.224-2.1-11.988-1.193-13.308,4.423a5.381,5.381,0,0,0,1.785,5.425,31.511,31.511,0,0,0,3.659,2.369c1.528,1.019,2.586,2.283.945,4-1.61,1.187-4.819.961-7.616-.573l-1.541,3.722" transform="translate(0 -2.11)" fill="#fff" fill-rule="evenodd"/><path d="M675.613,402.234c4.412.02,8.044-.542,9.383-2.818a4.173,4.173,0,0,0,.547-1.976c.39-4.3-3.848-5.543-7.294-4.828-3.919,1.136-6.865,4.331-7.02,9.485.12,4.063,2.384,5.942,5.547,6.347a12.372,12.372,0,0,0,4.665-.319,13.039,13.039,0,0,0,2.219-.823q-.171-1.678-.342-3.356a7.926,7.926,0,0,1-5.924.787,2.453,2.453,0,0,1-1.781-2.5m.426-3.328a4.744,4.744,0,0,1,1.116-2.123,3.134,3.134,0,0,1,3.525-.8,1.065,1.065,0,0,1,.633.8c.226,1.3-1.021,1.72-2.071,1.922a15.209,15.209,0,0,1-3.2.2" transform="translate(-24.222 -10.685)" fill="#fff" fill-rule="evenodd"/><path d="M709.993,392.674a152.5,152.5,0,0,1-2.509,15.462c1.512.027,3.023-.061,4.534-.033a58.7,58.7,0,0,1,1.918-8.549,4.5,4.5,0,0,1,4.728-2.786q.4-2.195.8-4.39c-1.941-.265-3.883.484-5.825,3.462.07-1.055.2-2.111.265-3.166h-3.913" transform="translate(-45.739 -10.63)" fill="#fff" fill-rule="evenodd"/><path d="M738.832,393.286l4.667.016,1.148,10.974,4.942-10.982,5.037.017-8.6,15.4-4.624-.052Z" transform="translate(-64.346 -11.199)" fill="#fff" fill-rule="evenodd"/><path d="M787.682,408.174H783.5l.183-3.08a6.207,6.207,0,0,1-4.113,3.325,4.769,4.769,0,0,1-4.184-1.031c-2.024-1.848-2.236-5.557-.182-9.879,3.215-5.128,8.575-6,14.7-4.348-.74,5-2.259,8.776-2.219,15.013m-2.876-12.143c-2.155-.632-4.531.539-5.82,3.926-.822,2.7-.421,3.944.365,4.517a2.084,2.084,0,0,0,2.814-.512,5.6,5.6,0,0,0,.877-1.222,10.207,10.207,0,0,0,1.032-3.09l.732-3.619" transform="translate(-85.077 -10.673)" fill="#fff" fill-rule="evenodd"/><path d="M817.576,393.24h4.581l-2.878,15.4h-4.6Z" transform="translate(-109.361 -11.171)" fill="#fff" fill-rule="evenodd"/><path d="M825.717,381.512c-2.087-.13-2.821-2.052-1.788-3.759a2.54,2.54,0,0,1,3.209-.89,2,2,0,0,1,1.161,1.61,2.534,2.534,0,0,1-1.716,2.866,3.616,3.616,0,0,1-.867.173" transform="translate(-114.578 -1.304)" fill="#fff" fill-rule="evenodd"/><path d="M848.549,398.466h-4.109l.155-2.636a5.579,5.579,0,0,1-4.086,2.882,4.669,4.669,0,0,1-4.108-1.126c-2.024-1.848-2.439-5.521-.385-9.844,2.462-3.925,5.667-5.611,10.149-4.828a2.648,2.648,0,0,1,.386.1l1.267-6.917,4.578-.051c-1.351,7.043-3.334,15.22-3.848,22.421m-2.715-11.811c-2.585-1.465-5.092.342-6.043,3.3-.822,2.7-.233,4.233.552,4.806a2.419,2.419,0,0,0,3.077-.488,5.526,5.526,0,0,0,.826-1.222,10.338,10.338,0,0,0,.971-3.131c.244-1.207.372-2.064.616-3.27" transform="translate(-121.225 -0.966)" fill="#fff" fill-rule="evenodd"/><path d="M882.429,382.295h7.389l1.818-7.124c.1-.38.322-.711.714-.714l6.35-.039c.392,0,.81.333.714.714l-1.818,7.163h7.342c.393,0,.822.337.714.714l-1.812,6.317c-.108.377-.321.714-.714.714h-7.5l-1.81,7.132c-.094.371-.314.7-.7.7l-6.39.021c-.393,0-.81-.334-.714-.714l1.821-7.136h-6.917c-.392,0-.806-.332-.714-.714l1.523-6.334c.09-.373.314-.7.7-.7" transform="translate(-148.249)" fill="#d90010" fill-rule="evenodd"/><path d="M891.238,391.4c.11-.517-.251-.8-.742-.8l-6.812-.042,1.089-4.505a.835.835,0,0,1,.792-.708l6.349.008a1.6,1.6,0,0,0,.532-.072.99.99,0,0,0,.261-.133.39.39,0,0,0,.191-.3l1.7-6.71a.833.833,0,0,1,.795-.7l4.677.057-1.953,7.777c0,.019-.012.052-.017.084h.009l7.862.012-1.352,4.622a.839.839,0,0,1-.788.689l-7.13-.044-2.005,7.814-5.232-.035Z" transform="translate(-150.319 -1.79)" fill="#fff" fill-rule="evenodd"/><path d="M895.125,398.627l2.005-7.813,7.442.046c.22,0,.339-.19.4-.4l1.2-4.109-7.324-.011c-.427,0-.468-.252-.383-.584l1.828-7.284-4.17-.05c-.22,0-.347.188-.4.4l-1.7,6.71a.772.772,0,0,1-.344.523,1.375,1.375,0,0,1-.366.186,1.96,1.96,0,0,1-.662.093l-6.349-.008c-.22,0-.349.187-.4.4l-.971,4.013,6.306.039a1.049,1.049,0,0,1,1.13,1.3l-1.653,6.525Z" transform="translate(-151.061 -2.375)" fill="#fff" fill-rule="evenodd"/><path d="M935.992,379.648a1.694,1.694,0,0,1,.822.214,1.549,1.549,0,0,1,.619.615,1.673,1.673,0,0,1,0,1.668,1.579,1.579,0,0,1-.617.616,1.67,1.67,0,0,1-1.66,0,1.578,1.578,0,0,1-.616-.616,1.671,1.671,0,0,1,0-1.668,1.548,1.548,0,0,1,.619-.615,1.7,1.7,0,0,1,.823-.214m0,.327a1.359,1.359,0,0,0-.66.171,1.246,1.246,0,0,0-.5.494,1.344,1.344,0,0,0,0,1.343,1.265,1.265,0,0,0,.495.5,1.337,1.337,0,0,0,1.333,0,1.281,1.281,0,0,0,.495-.5,1.342,1.342,0,0,0,0-1.343,1.247,1.247,0,0,0-.5-.494,1.368,1.368,0,0,0-.661-.171m-.756,2.231h.36v-.726h.093a.4.4,0,0,1,.248.075,1.172,1.172,0,0,1,.248.365l.149.286h.443l-.209-.356c-.074-.126-.117-.2-.13-.215a.861.861,0,0,0-.12-.136.442.442,0,0,0-.124-.067.57.57,0,0,0,.352-.169.467.467,0,0,0,.125-.327.5.5,0,0,0-.067-.254.442.442,0,0,0-.165-.169.687.687,0,0,0-.278-.071q-.061,0-.565,0h-.36Zm.36-1h.145a1.824,1.824,0,0,0,.387-.024.229.229,0,0,0,.118-.084.224.224,0,0,0,.044-.136.213.213,0,0,0-.043-.132.23.23,0,0,0-.121-.083,1.726,1.726,0,0,0-.385-.025H935.6Z" transform="translate(-180.376 -3.104)" fill="#fff" fill-rule="evenodd"/><text transform="translate(695.286 404.733)" fill="#fff" font-size="4" font-family="FiraSans-Italic, Fira Sans" font-style="italic"><tspan x="0" y="0" letter-spacing="0.199em">Ph</tspan><tspan y="0" letter-spacing="0.2em">a</tspan><tspan y="0" letter-spacing="0.199em">r</tspan><tspan y="0" letter-spacing="0.2em">mac</tspan><tspan y="0">y</tspan></text></g></svg>